<?xml version="1.0" encoding="UTF-8"?>
<svg id="Layer_1" data-name="Layer 1" xmlns="http://www.w3.org/2000/svg" xmlns:xlink="http://www.w3.org/1999/xlink" viewBox="0 0 152.33 33.38">
  <defs>
    <style>
      .cls-1 {
        fill: url(#linear-gradient-4);
      }

      .cls-2 {
        fill: url(#linear-gradient-3);
      }

      .cls-3 {
        fill: url(#linear-gradient-2);
      }

      .cls-4 {
        fill: url(#linear-gradient);
      }

      .cls-5 {
        fill: #1d0642;
      }
    </style>
    <linearGradient id="linear-gradient" x1="14.24" y1="-2768.64" x2="24.73" y2="-2769.49" gradientTransform="translate(0 -2739.76) scale(1 -1)" gradientUnits="userSpaceOnUse">
      <stop offset="0" stop-color="#f05a2b"/>
      <stop offset="1" stop-color="#faaa3f"/>
    </linearGradient>
    <linearGradient id="linear-gradient-2" x1="20.12" y1="-2770.99" x2="10.43" y2="-2763.96" gradientTransform="translate(0 -2739.76) scale(1 -1)" gradientUnits="userSpaceOnUse">
      <stop offset="0" stop-color="#faaa3f"/>
      <stop offset="1" stop-color="#f05a2b"/>
    </linearGradient>
    <linearGradient id="linear-gradient-3" x1="-.15" y1="-2760.54" x2="25.11" y2="-2745.06" gradientTransform="translate(0 -2739.76) scale(1 -1)" gradientUnits="userSpaceOnUse">
      <stop offset="0" stop-color="#faaa3f"/>
      <stop offset="1" stop-color="#f05a2b"/>
    </linearGradient>
    <linearGradient id="linear-gradient-4" x1="17.53" y1="-2768.49" x2="4.93" y2="-2755.47" gradientTransform="translate(0 -2739.76) scale(1 -1)" gradientUnits="userSpaceOnUse">
      <stop offset="0" stop-color="#faaa3f"/>
      <stop offset="1" stop-color="#f05a2b"/>
    </linearGradient>
  </defs>
  <g id="logo_horizontal_fullcolor">
    <g>
      <path class="cls-5" d="M130.09,25.5v-14.38h3.8v1.1c1.04-.92,2.3-1.38,3.78-1.38.94,0,1.79.19,2.53.58.74.37,1.35.89,1.83,1.57.59-.7,1.29-1.23,2.08-1.6.81-.37,1.71-.55,2.69-.55,1.09,0,2.05.25,2.86.75.83.48,1.48,1.15,1.94,2.02.48.85.72,1.84.72,2.98v8.92h-3.78v-8.36c0-.94-.25-1.67-.75-2.21-.5-.55-1.17-.83-2-.83-.57,0-1.1.12-1.58.36-.46.24-.86.6-1.19,1.08.02.17.04.33.06.5.02.17.03.35.03.55v8.92h-3.8v-8.36c0-.94-.25-1.67-.75-2.21-.48-.55-1.14-.83-1.97-.83-.57,0-1.09.11-1.55.33-.44.22-.82.55-1.14.99v10.08h-3.8Z"/>
      <path class="cls-5" d="M119.52,25.77c-1.11,0-2.1-.24-2.97-.72-.85-.5-1.53-1.18-2.03-2.04-.48-.86-.72-1.86-.72-2.98v-8.92h3.8v8.36c0,.92.27,1.66.81,2.21.56.55,1.3.83,2.22.83.63,0,1.19-.12,1.69-.36.52-.26.94-.62,1.28-1.08v-9.96h3.8v14.38h-3.8v-1.16c-1.11.96-2.47,1.44-4.08,1.44Z"/>
      <path class="cls-5" d="M105.96,25.77c-1.33,0-2.56-.17-3.69-.5-1.13-.35-2.11-.85-2.94-1.49l1.89-2.51c.83.55,1.63.97,2.39,1.24.78.28,1.55.41,2.3.41.85,0,1.53-.14,2.03-.41.52-.29.78-.67.78-1.13,0-.37-.15-.66-.44-.88-.28-.22-.73-.38-1.36-.47l-2.78-.41c-1.44-.22-2.54-.68-3.28-1.38-.74-.72-1.11-1.66-1.11-2.82,0-.94.24-1.74.72-2.4.5-.68,1.19-1.21,2.08-1.57.91-.39,1.98-.58,3.22-.58,1.06,0,2.08.15,3.08.44,1.02.29,1.97.75,2.86,1.35l-1.83,2.46c-.8-.5-1.56-.86-2.28-1.08-.72-.22-1.45-.33-2.19-.33-.68,0-1.24.13-1.67.39-.41.26-.61.6-.61,1.02,0,.39.15.69.44.91.3.22.81.38,1.53.47l2.75.41c1.44.2,2.55.66,3.3,1.38.76.7,1.14,1.61,1.14,2.73,0,.92-.28,1.74-.83,2.46-.56.7-1.31,1.26-2.25,1.68-.94.4-2.03.61-3.25.61Z"/>
      <path class="cls-5" d="M90.77,25.77c-1.44,0-2.75-.33-3.92-.99-1.17-.66-2.09-1.56-2.78-2.68-.68-1.12-1.03-2.38-1.03-3.78s.33-2.66,1-3.78c.68-1.14,1.61-2.04,2.78-2.71,1.18-.66,2.5-.99,3.94-.99s2.75.33,3.92.99c1.18.66,2.11,1.56,2.78,2.71.68,1.12,1.03,2.38,1.03,3.78s-.34,2.66-1.03,3.78c-.67,1.12-1.58,2.02-2.75,2.68-1.17.66-2.48.99-3.94.99ZM90.77,22.49c.76,0,1.43-.18,2.03-.55.61-.37,1.09-.86,1.44-1.49.37-.64.56-1.35.56-2.13s-.18-1.5-.56-2.13c-.35-.63-.83-1.12-1.44-1.49-.59-.39-1.27-.58-2.03-.58s-1.42.19-2.03.58c-.61.37-1.09.86-1.44,1.49-.35.63-.53,1.33-.53,2.13s.18,1.48.53,2.13c.35.63.83,1.12,1.44,1.49.61.37,1.29.55,2.03.55Z"/>
      <path class="cls-5" d="M77.21,25.5v-14.38h3.8v14.38h-3.8ZM79.1,9.41c-.59,0-1.1-.21-1.53-.63s-.64-.93-.64-1.52.21-1.11.64-1.52c.43-.42.93-.63,1.53-.63s1.12.21,1.53.63c.43.4.64.91.64,1.52s-.21,1.09-.64,1.52c-.41.42-.92.63-1.53.63Z"/>
      <path class="cls-5" d="M66.15,25.5v-14.38h3.8v1.6c.46-.63,1.02-1.1,1.67-1.44.65-.33,1.38-.5,2.19-.5.7.02,1.23.13,1.58.33v3.31c-.28-.13-.58-.22-.92-.28-.33-.07-.68-.11-1.03-.11-.74,0-1.42.18-2.03.55-.61.37-1.1.89-1.47,1.57v9.33h-3.8Z"/>
      <path class="cls-5" d="M55.58,25.77c-1.11,0-2.1-.24-2.97-.72-.85-.5-1.53-1.18-2.03-2.04-.48-.86-.72-1.86-.72-2.98v-8.92h3.8v8.36c0,.92.27,1.66.81,2.21.56.55,1.3.83,2.22.83.63,0,1.19-.12,1.69-.36.52-.26.94-.62,1.28-1.08v-9.96h3.8v14.38h-3.8v-1.16c-1.11.96-2.47,1.44-4.08,1.44Z"/>
      <path class="cls-5" d="M42.38,25.77c-1.43,0-2.71-.32-3.86-.97-1.15-.66-2.05-1.56-2.72-2.68-.67-1.14-1-2.41-1-3.81s.33-2.69,1-3.81c.67-1.12,1.57-2.02,2.72-2.68,1.15-.66,2.43-.99,3.86-.99,1.15,0,2.24.22,3.28.66,1.06.44,1.96,1.08,2.72,1.9l-2.33,2.46c-.54-.59-1.1-1.02-1.69-1.3-.57-.29-1.2-.44-1.89-.44-.74,0-1.41.18-2,.55-.57.37-1.04.86-1.39,1.49-.33.63-.5,1.34-.5,2.15s.17,1.48.5,2.13c.35.63.83,1.12,1.44,1.49.61.35,1.29.52,2.03.52.65,0,1.25-.13,1.8-.39.57-.28,1.12-.68,1.64-1.21l2.28,2.37c-.74.79-1.63,1.42-2.67,1.88-1.04.44-2.11.66-3.22.66Z"/>
    </g>
    <path class="cls-4" d="M16.33,29.8c.73,1.05,1.69,2.07,2.92,2.99,2.65-.76,4.99-2.23,6.81-4.17-2.17,1.13-4.83,1.28-7.22.16-1.58-.74-2.81-1.91-3.62-3.31.3,2.34,1.06,4.19,1.11,4.33Z"/>
    <path class="cls-3" d="M12.01,23.27c-.55,2.63-.5,5.91.71,9.93,1.2.19,2.43.24,3.69.12.98-.09,1.93-.27,2.85-.53-1.23-.92-2.18-1.94-2.92-2.99,0,0,0,0,0,0-3.27-4.27-2.8-8.18-2.17-10.24-1.32,1.75-2.05,3.45-2.16,3.7h0Z"/>
    <path class="cls-2" d="M20.46,7.14s3.42.85,4.43,3.83c-.07.05-.83-.98-2.49-1.36,0,0-.56-1.48-1.94-2.47h0ZM22.02,0s-1.48.9-1.76,3.01C15.97-.64,11.73,1.02,11.73,1.02c.94.27,1.85.93,2.76,1.97-5.36-1.13-9.25.62-9.25.62,1.3.11,2.67.57,4.1,1.37C3.39,7.43-.54,12.87.06,19.62c.04.46.1.91.18,1.36.17,1.04.41,1.86.82,2.9.63-1.95,2.54-5.17,5.05-7.69h0c5.73-6.49,18.89-6.37,20.64,1.98,1.41-2.1.69-4.14-.76-6.2.29-.35.44-.53.59-.84.21-.44.33-.67.35-1.38l-.11-.83s-.11-1.15-1.13-2.38c-2.75-3.3-4-5.03-3.68-6.53Z"/>
    <path class="cls-1" d="M12.01,23.27s-.01.03-.01.03c.77-5.86,1.51-7.25,3.67-10.27-1.76-.11-3.38-.08-7.42,1.25-.78.55-1.5,1.18-2.13,1.9h0c-2.51,2.53-4.42,5.75-5.05,7.7,1.96,4.92,6.39,8.5,11.65,9.32-1.21-4.02-1.25-7.3-.71-9.93Z"/>
  </g>
</svg>