<svg height="302pt" viewBox="0 0 374.69 302" width="375pt" xmlns="http://www.w3.org/2000/svg"><g transform="translate(4 298)"><path d="m-4 4v-302h374.692v302z" fill="#fff"/><ellipse cx="205.692" cy="-276" fill="none" rx="38.6955" ry="18" stroke="#000"/><text font-family="Times,serif" font-size="14" text-anchor="middle" x="205.692" y="-271.8">phoenix</text><ellipse cx="33.6923" cy="-190" fill="none" rx="33.8857" ry="18" stroke="#000"/><text font-family="Times,serif" font-size="14" text-anchor="middle" x="33.6923" y="-185.8">poison</text><path d="m168.912-270.324c-26.484 4.627-62.256 13.551-89.8213 30.324-10.4674 6.369-20.0277 15.827-27.6466 24.74" fill="none" stroke="#000"/><path d="m54.0367-212.9-9.0141 5.568 3.5747-9.974z" stroke="#000"/><text font-family="Times,serif" font-size="14" text-anchor="middle" x="125.493" y="-228.8">~&gt; 1.5 or ~&gt; 2.0</text><ellipse cx="153.692" cy="-190" fill="none" rx="68.6392" ry="18" stroke="#000"/><text font-family="Times,serif" font-size="14" text-anchor="middle" x="153.692" y="-185.8">phoenix_pubsub</text><path d="m194.468-258.762c-3.965 5.859-8.401 12.557-12.284 18.762-4.624 7.391-9.459 15.535-13.807 23.025" fill="none" stroke="#000"/><path d="m171.203-214.868-8.018 6.926 1.949-10.414z" stroke="#000"/><text font-family="Times,serif" font-size="14" text-anchor="middle" x="213.946" y="-228.8">~&gt; 1.0.0-rc</text><ellipse cx="286.692" cy="-104" fill="none" rx="38.211" ry="18" stroke="#000"/><text font-family="Times,serif" font-size="14" text-anchor="middle" x="286.692" y="-99.8">cowboy</text><path d="m226.015-260.379c6.738 5.707 13.764 12.722 18.677 20.379 2.999 4.674 22.75 70.213 34.067 108.222" fill="none" stroke="#000"/><path d="m282.213-132.444-.506 10.582-6.204-8.588z" stroke="#000"/><text font-family="Times,serif" font-size="14" text-anchor="middle" x="284.927" y="-185.8">~&gt; 1.0</text><ellipse cx="339.692" cy="-190" fill="none" rx="27" ry="18" stroke="#000"/><text font-family="Times,serif" font-size="14" text-anchor="middle" x="339.692" y="-185.8">plug</text><path d="m231.647-262.583c12.633 6.329 27.896 14.404 41.045 22.583 14.516 9.029 29.966 20.211 42.367 29.613" fill="none" stroke="#000"/><path d="m317.305-213.075 5.803 8.864-10.064-3.311z" stroke="#000"/><text font-family="Times,serif" font-size="14" text-anchor="middle" x="311.927" y="-228.8">~&gt; 1.1</text><ellipse cx="245.692" cy="-18" fill="none" rx="34.3527" ry="18" stroke="#000"/><text font-family="Times,serif" font-size="14" text-anchor="middle" x="245.692" y="-13.8">cowlib</text><path d="m271.803-87.2383c-4.745 5.7077-9.648 12.432-13.08 19.2383-3.449 6.838-6.058 14.6875-8.001 22.0713" fill="none" stroke="#000"/><path d="m254.077-44.9017-5.675 8.9471-1.143-10.5329z" stroke="#000"/><text font-family="Times,serif" font-size="14" text-anchor="middle" x="283.177" y="-56.8">~&gt; 1.0.0</text><ellipse cx="327.692" cy="-18" fill="none" rx="29.9931" ry="18" stroke="#000"/><text font-family="Times,serif" font-size="14" text-anchor="middle" x="327.692" y="-13.8">ranch</text><path d="m296.036-86.3996c3.161 5.7749 6.65 12.3272 9.656 18.3996 3.584 7.2393 7.261 15.1899 10.559 22.5414" fill="none" stroke="#000"/><path d="m319.622-46.4891.845 10.5611-7.246-7.729z" stroke="#000"/><text font-family="Times,serif" font-size="14" text-anchor="middle" x="330.927" y="-56.8">~&gt; 1.0</text><path d="m329.723-173.2c-7.625 12.085-18.291 28.99-27.096 42.945" fill="none" stroke="#000"/><path d="m305.457-128.181-8.297 6.59 2.377-10.325z" stroke="#000"/><text font-family="Times,serif" font-size="14" text-anchor="middle" x="333.927" y="-142.8">~&gt; 1.0</text></g></svg>