<?xml version="1.0" encoding="UTF-8" standalone="no"?>
<!DOCTYPE svg PUBLIC "-//W3C//DTD SVG 1.1//EN"
 "http://www.w3.org/Graphics/SVG/1.1/DTD/svg11.dtd">
<!-- Generated by graphviz version 2.38.0 (20140413.2041)
 -->
<!-- Title: dependency tree Pages: 1 -->
<svg width="375pt" height="302pt"
 viewBox="0.00 0.00 374.69 302.00" xmlns="http://www.w3.org/2000/svg" xmlns:xlink="http://www.w3.org/1999/xlink">
<g id="graph0" class="graph" transform="scale(1 1) rotate(0) translate(4 298)">
<title>dependency tree</title>
<polygon fill="white" stroke="none" points="-4,4 -4,-298 370.692,-298 370.692,4 -4,4"/>
<!-- phoenix -->
<g id="node1" class="node"><title>phoenix</title>
<ellipse fill="none" stroke="black" cx="205.692" cy="-276" rx="38.6955" ry="18"/>
<text text-anchor="middle" x="205.692" y="-271.8" font-family="Times,serif" font-size="14.00">phoenix</text>
</g>
<!-- poison -->
<g id="node2" class="node"><title>poison</title>
<ellipse fill="none" stroke="black" cx="33.6923" cy="-190" rx="33.8857" ry="18"/>
<text text-anchor="middle" x="33.6923" y="-185.8" font-family="Times,serif" font-size="14.00">poison</text>
</g>
<!-- phoenix&#45;&gt;poison -->
<g id="edge1" class="edge"><title>phoenix&#45;&gt;poison</title>
<path fill="none" stroke="black" d="M168.912,-270.324C142.428,-265.697 106.656,-256.773 79.0907,-240 68.6233,-233.631 59.063,-224.173 51.4441,-215.26"/>
<polygon fill="black" stroke="black" points="54.0367,-212.9 45.0226,-207.332 48.5973,-217.306 54.0367,-212.9"/>
<text text-anchor="middle" x="125.493" y="-228.8" font-family="Times,serif" font-size="14.00">~&gt; 1.5 or ~&gt; 2.0</text>
</g>
<!-- phoenix_pubsub -->
<g id="node3" class="node"><title>phoenix_pubsub</title>
<ellipse fill="none" stroke="black" cx="153.692" cy="-190" rx="68.6392" ry="18"/>
<text text-anchor="middle" x="153.692" y="-185.8" font-family="Times,serif" font-size="14.00">phoenix_pubsub</text>
</g>
<!-- phoenix&#45;&gt;phoenix_pubsub -->
<g id="edge2" class="edge"><title>phoenix&#45;&gt;phoenix_pubsub</title>
<path fill="none" stroke="black" d="M194.468,-258.762C190.503,-252.903 186.067,-246.205 182.184,-240 177.56,-232.609 172.725,-224.465 168.377,-216.975"/>
<polygon fill="black" stroke="black" points="171.203,-214.868 163.185,-207.942 165.134,-218.356 171.203,-214.868"/>
<text text-anchor="middle" x="213.946" y="-228.8" font-family="Times,serif" font-size="14.00">~&gt; 1.0.0&#45;rc</text>
</g>
<!-- cowboy -->
<g id="node4" class="node"><title>cowboy</title>
<ellipse fill="none" stroke="black" cx="286.692" cy="-104" rx="38.211" ry="18"/>
<text text-anchor="middle" x="286.692" y="-99.8" font-family="Times,serif" font-size="14.00">cowboy</text>
</g>
<!-- phoenix&#45;&gt;cowboy -->
<g id="edge3" class="edge"><title>phoenix&#45;&gt;cowboy</title>
<path fill="none" stroke="black" d="M226.015,-260.379C232.753,-254.672 239.779,-247.657 244.692,-240 247.691,-235.326 267.442,-169.787 278.759,-131.778"/>
<polygon fill="black" stroke="black" points="282.213,-132.444 281.707,-121.862 275.503,-130.45 282.213,-132.444"/>
<text text-anchor="middle" x="284.927" y="-185.8" font-family="Times,serif" font-size="14.00">~&gt; 1.0</text>
</g>
<!-- plug -->
<g id="node7" class="node"><title>plug</title>
<ellipse fill="none" stroke="black" cx="339.692" cy="-190" rx="27" ry="18"/>
<text text-anchor="middle" x="339.692" y="-185.8" font-family="Times,serif" font-size="14.00">plug</text>
</g>
<!-- phoenix&#45;&gt;plug -->
<g id="edge6" class="edge"><title>phoenix&#45;&gt;plug</title>
<path fill="none" stroke="black" d="M231.647,-262.583C244.28,-256.254 259.543,-248.179 272.692,-240 287.208,-230.971 302.658,-219.789 315.059,-210.387"/>
<polygon fill="black" stroke="black" points="317.305,-213.075 323.108,-204.211 313.044,-207.522 317.305,-213.075"/>
<text text-anchor="middle" x="311.927" y="-228.8" font-family="Times,serif" font-size="14.00">~&gt; 1.1</text>
</g>
<!-- cowlib -->
<g id="node5" class="node"><title>cowlib</title>
<ellipse fill="none" stroke="black" cx="245.692" cy="-18" rx="34.3527" ry="18"/>
<text text-anchor="middle" x="245.692" y="-13.8" font-family="Times,serif" font-size="14.00">cowlib</text>
</g>
<!-- cowboy&#45;&gt;cowlib -->
<g id="edge4" class="edge"><title>cowboy&#45;&gt;cowlib</title>
<path fill="none" stroke="black" d="M271.803,-87.2383C267.058,-81.5306 262.155,-74.8063 258.723,-68 255.274,-61.162 252.665,-53.3125 250.722,-45.9287"/>
<polygon fill="black" stroke="black" points="254.077,-44.9017 248.402,-35.9546 247.259,-46.4875 254.077,-44.9017"/>
<text text-anchor="middle" x="283.177" y="-56.8" font-family="Times,serif" font-size="14.00">~&gt; 1.0.0</text>
</g>
<!-- ranch -->
<g id="node6" class="node"><title>ranch</title>
<ellipse fill="none" stroke="black" cx="327.692" cy="-18" rx="29.9931" ry="18"/>
<text text-anchor="middle" x="327.692" y="-13.8" font-family="Times,serif" font-size="14.00">ranch</text>
</g>
<!-- cowboy&#45;&gt;ranch -->
<g id="edge5" class="edge"><title>cowboy&#45;&gt;ranch</title>
<path fill="none" stroke="black" d="M296.036,-86.3996C299.197,-80.6247 302.686,-74.0724 305.692,-68 309.276,-60.7607 312.953,-52.8101 316.251,-45.4586"/>
<polygon fill="black" stroke="black" points="319.622,-46.4891 320.467,-35.928 313.221,-43.657 319.622,-46.4891"/>
<text text-anchor="middle" x="330.927" y="-56.8" font-family="Times,serif" font-size="14.00">~&gt; 1.0</text>
</g>
<!-- plug&#45;&gt;cowboy -->
<g id="edge7" class="edge"><title>plug&#45;&gt;cowboy</title>
<path fill="none" stroke="black" d="M329.723,-173.2C322.098,-161.115 311.432,-144.21 302.627,-130.255"/>
<polygon fill="black" stroke="black" points="305.457,-128.181 297.16,-121.591 299.537,-131.916 305.457,-128.181"/>
<text text-anchor="middle" x="333.927" y="-142.8" font-family="Times,serif" font-size="14.00">~&gt; 1.0</text>
</g>
</g>
</svg>
