<?xml version="1.0" encoding="utf-8"?>
<!-- Generator: Adobe Illustrator 24.1.2, SVG Export Plug-In . SVG Version: 6.00 Build 0)  -->
<svg id="Calque_2" class="img_header" xmlns="http://www.w3.org/2000/svg" viewBox="0 0 201.79 135.22" role="img" aria-label="Ministère de la Transition écologique" width="215px"><defs><style>.cls-1{fill:#000091;}.cls-2{fill:#e1000f;}.cls-3{fill:#9e9d9c;}</style></defs><title>Accueil - Ministère de la Transition écologique</title><desc>Ministère de la Transition écologique</desc><path d="M130.29,213.83c.41,0,.76.3.57,1.09l-1.89.44c.33-.88.88-1.53,1.32-1.53m1.05,3H131a2.27,2.27,0,0,1-1.48,1c-.52,0-.79-.31-.79-1a4.5,4.5,0,0,1,.09-.84l3.05-1c.6-1.41-.12-2-1-2-1.44,0-3.08,2.41-3.08,4.53,0,.94.45,1.46,1.16,1.46s1.68-.8,2.39-2.12m-.61-4.43,2.15-2v-.23h-1.16l-1.32,2.23Zm-6.58,1.41h1l-1.61,4.39a.51.51,0,0,0,.44.75,3.73,3.73,0,0,0,2.91-2.14h-.29a3.92,3.92,0,0,1-1.86,1.13l1.48-4.13h1.51l.18-.63h-1.46l.56-1.58h-.58l-1,1.58-1.24.18Zm-1.37-.21c.12-.41-.15-.64-.36-.64a2.81,2.81,0,0,0-2.34,1.91h.28a2.27,2.27,0,0,1,1.22-.94l-1.68,4.38a.44.44,0,0,0,.36.64,2.78,2.78,0,0,0,2.24-1.9h-.29A2.26,2.26,0,0,1,121,218Zm.31-2.2a.73.73,0,1,0,0-1.45.73.73,0,0,0,0,1.45m-9.7,6.74c-.22.49,0,.81.5.81.3,0,.43-.08.55-.4l1.17-3.09a4.18,4.18,0,0,1,2.09-1.36c.32,0,.27.26.06.66L116,218.25a.51.51,0,0,0,.44.75,2.84,2.84,0,0,0,2.35-1.9h-.29a2.3,2.3,0,0,1-1.22.93l1.54-3.11a2.49,2.49,0,0,0,.3-1.07.76.76,0,0,0-.82-.84c-.76,0-1.53.86-2.44,1.92v-.82c0-.58-.19-1.1-.72-1.1-.33,0-.65.29-.94.7v.11c.57,0,.82.82.41,1.72Zm0-3.84c.21-.71.1-1.34-.45-1.34s-.81.5-1.47,1.92v-.82c0-.58-.19-1.1-.72-1.1s-1.18,1-1.61,1.91h.29c.3-.43.57-.69.79-.69s.41.41,0,1.31L109,218.19c-.22.49,0,.81.5.81.3,0,.43-.08.55-.4l1.17-3.09c.33-.41.62-.76,1-1.16Zm-6.76-.52c.41,0,.76.3.58,1.09l-1.9.44c.33-.88.88-1.53,1.32-1.53m1,3h-.37a2.29,2.29,0,0,1-1.49,1c-.52,0-.78-.31-.78-1a3.8,3.8,0,0,1,.09-.84l3-1c.59-1.41-.13-2-1-2-1.44,0-3.08,2.41-3.08,4.53,0,.94.45,1.46,1.15,1.46s1.69-.8,2.39-2.12m-7.19-3h1l-1.6,4.39a.51.51,0,0,0,.44.75,3.71,3.71,0,0,0,2.9-2.14h-.28a4,4,0,0,1-1.86,1.13l1.47-4.13h1.51l.19-.63h-1.47l.57-1.58h-.59l-1,1.58-1.25.18Zm-5.56,3.42c0-1.35,1.51-3.19,2.36-3.19a1.72,1.72,0,0,1,.52.07l-.88,2.34c-.51.62-1.29,1.37-1.66,1.37-.2,0-.34-.18-.34-.59m4.64-4.52-.46,0-.52.5h-.11c-2.51,0-4.68,2.82-4.68,4.87a.83.83,0,0,0,.9.9c.65,0,1.29-.92,2-1.92l0,.36c-.09,1,.22,1.56.75,1.56s1.18-1,1.61-1.9h-.29c-.3.43-.57.68-.79.68s-.4-.42,0-1.31Zm-5.35,1.59c.21-.71.1-1.34-.45-1.34s-.82.5-1.48,1.92v-.82c0-.58-.19-1.1-.71-1.1s-1.18,1-1.61,1.91h.29c.29-.43.57-.69.79-.69s.41.41,0,1.31l-1.19,2.65c-.22.49,0,.81.49.81.3,0,.43-.08.56-.4l1.16-3.09c.33-.41.63-.76,1-1.16Zm-8.43,4.43.11-.34c-1.47-.28-1.65-.28-1.07-1.87l.59-1.64H87c.73,0,.74.29.63,1.09h.42l1-2.66h-.42c-.37.63-.65,1.09-1.44,1.09h-1.6l.85-2.32c.26-.74.42-.89,1.41-.89h.7c1,0,1.15.28,1.15,1.31h.4l.34-1.81H84.36l-.11.35c1.18.24,1.29.35.74,1.87l-1.33,3.61c-.55,1.51-.78,1.63-2.13,1.87l-.1.34Z" transform="translate(-81.15 -83.78)"></path><path d="M115.55,200.07c.41,0,.76.31.57,1.09l-1.89.44c.33-.88.88-1.53,1.32-1.53m1,3.05h-.38a2.27,2.27,0,0,1-1.48,1c-.52,0-.78-.31-.78-1a4.52,4.52,0,0,1,.08-.84l3-1c.6-1.41-.12-2-1-2-1.45,0-3.09,2.41-3.09,4.53,0,.94.45,1.46,1.16,1.46s1.68-.8,2.39-2.12m-.61-4.43,2.15-2v-.23H117l-1.32,2.23Zm-6.58,1.41h1l-1.6,4.39a.51.51,0,0,0,.44.75,3.74,3.74,0,0,0,2.9-2.13h-.28a4.09,4.09,0,0,1-1.86,1.12l1.47-4.13H113l.19-.63h-1.47l.56-1.58h-.58l-1,1.58-1.24.18Zm-1.36-.21a.45.45,0,0,0-.37-.64,2.84,2.84,0,0,0-2.34,1.91h.28a2.25,2.25,0,0,1,1.23-.94l-1.69,4.38a.44.44,0,0,0,.36.64,2.78,2.78,0,0,0,2.24-1.9h-.29a2.21,2.21,0,0,1-1.22.93Zm.3-2.2a.73.73,0,1,0-.72-.73.72.72,0,0,0,.72.73m-5.85,6.58,3.07-8-.1-.13-1.93.22v.24l.38.28c.34.27.23.52-.08,1.33l-2.4,6.32a.51.51,0,0,0,.44.75,2.71,2.71,0,0,0,2.24-1.9h-.29a2.49,2.49,0,0,1-1.33.93m-5.84-.75c0-1.35,1.51-3.19,2.36-3.19a1.72,1.72,0,0,1,.52.07l-.88,2.34c-.51.62-1.29,1.37-1.65,1.37s-.35-.18-.35-.59M101.3,199l-.46,0-.52.5h-.11c-2.51,0-4.68,2.82-4.68,4.87a.83.83,0,0,0,.9.9c.65,0,1.29-.92,2-1.91l0,.35c-.09,1,.22,1.56.75,1.56s1.18-1,1.61-1.9h-.29c-.29.43-.57.68-.79.68s-.4-.42,0-1.31Zm-11.21,7.31c0-.58.56-.95,1.37-1.27a9.07,9.07,0,0,0,1.19.45c.83.28,1.15.39,1.15.64,0,.54-.91,1-2.16,1-1,0-1.55-.22-1.55-.77m2.28-3.56c-.36,0-.51-.3-.51-.66,0-1,.53-2.42,1.36-2.42.36,0,.51.31.51.66,0,1-.53,2.42-1.36,2.42m2.39,3c0-.71-.63-1-1.65-1.27s-1.28-.34-1.28-.62a.9.9,0,0,1,.56-.71,2.56,2.56,0,0,0,2.38-2.46,1.44,1.44,0,0,0-.12-.61h1.22l.19-.63H94.12a1.53,1.53,0,0,0-.78-.22,2.56,2.56,0,0,0-2.52,2.44A1.42,1.42,0,0,0,92,203.15c-.72.32-1.12.69-1.12,1.13a.7.7,0,0,0,.3.6c-1.65.48-2.3,1-2.3,1.81s1,1.08,2.19,1.08c2,0,3.7-1.09,3.7-2m-7.69-4.71c.72,0,.73.3.62,1.09h.42l1-2.65h-.42c-.36.62-.65,1.08-1.44,1.08h-1.6l.81-2.21c.26-.74.42-.88,1.41-.88h.7c1,0,1.15.28,1.15,1.3h.4l.34-1.8H84.36l-.11.34c1.18.24,1.29.35.74,1.87l-1.33,3.61c-.55,1.51-.78,1.63-2.13,1.87l-.1.34h6.76l1.21-1.91h-.46a4.46,4.46,0,0,1-3.1,1.42c-1.79,0-1.63-.08-1-1.72l.64-1.75Zm.88-4.61L90.09,195v-.23h-1.3l-1.19,1.71Z" transform="translate(-81.15 -83.78)"></path><path d="M114.84,186.31c.4,0,.76.31.57,1.09l-1.89.44c.33-.88.88-1.53,1.32-1.53m1,3.05h-.37a2.29,2.29,0,0,1-1.49,1c-.52,0-.78-.31-.78-1a3.8,3.8,0,0,1,.09-.84l3-1c.59-1.41-.12-2-1-2-1.44,0-3.08,2.41-3.08,4.53,0,.94.45,1.46,1.15,1.46s1.69-.8,2.39-2.12m-.6-4.43,2.14-2v-.23h-1.15L115,184.93ZM109,186.34h.8l-1.6,4.39a.51.51,0,0,0,.44.75,3.74,3.74,0,0,0,2.9-2.13h-.28a4,4,0,0,1-1.86,1.12l1.47-4.13h1.51l.19-.63h-1.47l.56-1.58h-.58l-1,1.58-1,.18Zm-.79.5c.21-.72.1-1.35-.45-1.35s-.82.5-1.48,1.92v-.82c0-.58-.19-1.1-.71-1.1s-1.18,1-1.61,1.91h.28c.3-.43.58-.68.8-.68s.4.4,0,1.31l-1.19,2.64c-.22.49,0,.81.49.81a.49.49,0,0,0,.55-.39L106,188c.33-.4.63-.76,1-1.15Zm-6.76-.53c.41,0,.76.31.57,1.09l-1.89.44c.33-.88.88-1.53,1.32-1.53m1,3.05h-.37a2.27,2.27,0,0,1-1.49,1c-.51,0-.78-.31-.78-1a4.5,4.5,0,0,1,.09-.84l3-1c.59-1.41-.12-2-1-2-1.44,0-3.08,2.41-3.08,4.53,0,.94.45,1.46,1.16,1.46s1.68-.8,2.38-2.12M95,190.59c-.3,0-.73-.28-.73-.52a7.22,7.22,0,0,1,.3-.84l.5-1.31c.53-.63,1.33-1.3,1.78-1.3.28,0,.48.17.48.58,0,1.2-1.12,3.39-2.33,3.39m3.47-3.87c0-.9-.33-1.23-.95-1.23-.77,0-1.5.82-2.22,1.81l1.84-4.83-.1-.12-1.93.22v.23l.37.28c.35.27.24.54-.07,1.34l-2,5.1a5.38,5.38,0,0,0-.32.94c0,.53.71,1,1.36,1,1.5,0,4-2.7,4-4.76m-6-.59c.12-.41-.15-.64-.36-.64a2.85,2.85,0,0,0-2.35,1.91h.29a2.23,2.23,0,0,1,1.22-.94l-1.68,4.38a.44.44,0,0,0,.36.64,2.75,2.75,0,0,0,2.23-1.9H91.9a2.25,2.25,0,0,1-1.22.93Zm.31-2.2a.73.73,0,1,0-.73-.73.73.73,0,0,0,.73.73m-4.44-.7h-4l-.11.34c1.17.24,1.28.35.73,1.87l-1.3,3.61c-.55,1.51-.78,1.63-2.13,1.87l-.1.34h6.1l1.32-2.35h-.46c-.75.82-1.63,1.86-3,1.86-1,0-1.14-.18-.59-1.72l1.3-3.61c.54-1.51.78-1.63,2.13-1.87Z" transform="translate(-81.15 -83.78)"></path><path d="M81.57,114.07H85.4L89,120.23l3.62-6.16h3.83v15h-3V118.39l-3.34,5.52H87.94l-3.34-5.52V129h-3Z" transform="translate(-81.15 -83.78)"></path><path d="M100.65,114.07h3v15h-3Z" transform="translate(-81.15 -83.78)"></path><path d="M107.9,114.07h3.89l6.7,10.71V114.07h3v15h-3.9l-6.69-10.76V129h-3Z" transform="translate(-81.15 -83.78)"></path><path d="M125.74,114.07h3v15h-3Z" transform="translate(-81.15 -83.78)"></path><path d="M133.85,124.93a4.31,4.31,0,0,0,3.32,1.84,1.68,1.68,0,0,0,1.92-1.73c0-2.67-6.84-2.07-6.84-7.06a4.47,4.47,0,0,1,4.79-4.34,6.6,6.6,0,0,1,5.24,2.52l-2.22,2a4,4,0,0,0-3-1.86,1.59,1.59,0,0,0-1.73,1.56c0,2.68,6.84,2.06,6.84,7.13,0,2.78-2.22,4.49-5,4.49a6.75,6.75,0,0,1-5.56-2.5Z" transform="translate(-81.15 -83.78)"></path><path d="M143.73,114.07H156v2.76h-4.62V129h-3V116.83h-4.63Z" transform="translate(-81.15 -83.78)"></path><path d="M158.71,114.07h8.73v2.58h-5.69v3.47h4.83v2.59h-4.83v3.74h5.69V129h-8.73Zm.26-4.18h3.12l2.42,2.89h-2.78Z" transform="translate(-81.15 -83.78)"></path><path d="M171,114.07h4.58c3.29,0,5.32,1.69,5.32,4.47a4.07,4.07,0,0,1-2.39,3.87l4.71,6.63h-3.64l-4-6H174v6h-3Zm3,2.58v3.75h1.71a1.88,1.88,0,1,0,0-3.75Z" transform="translate(-81.15 -83.78)"></path><path d="M185.11,114.07h8.73v2.58h-5.69v3.47H193v2.59h-4.83v3.74h5.69V129h-8.73Z" transform="translate(-81.15 -83.78)"></path><path d="M81.57,135.94h5.88c4.75,0,8,3.44,8,7.48s-3.21,7.49-8,7.49H81.57Zm3,2.76v9.45h2.89a4.73,4.73,0,1,0,0-9.45Z" transform="translate(-81.15 -83.78)"></path><path d="M98.36,135.94h8.73v2.58H101.4V142h4.83v2.59H101.4v3.74h5.69v2.59H98.36Z" transform="translate(-81.15 -83.78)"></path><path d="M116.22,135.94h3v12.21H125v2.76h-8.73Z" transform="translate(-81.15 -83.78)"></path><path d="M132.08,135.94h4l5.67,15h-3.23L137.06,147h-6l-1.43,3.89h-3.23Zm4,8.49-2.06-5.63L132,144.43Z" transform="translate(-81.15 -83.78)"></path><path d="M148.1,135.94h12.28v2.76h-4.62v12.21h-3V138.7H148.1Z" transform="translate(-81.15 -83.78)"></path><path d="M163.07,135.94h4.58c3.3,0,5.33,1.68,5.33,4.47a4.08,4.08,0,0,1-2.4,3.87l4.71,6.63h-3.64l-4-6h-1.56v6h-3Zm3,2.58v3.75h1.71a1.88,1.88,0,1,0,0-3.75Z" transform="translate(-81.15 -83.78)"></path><path d="M181.62,135.94h4l5.67,15H188L186.61,147h-6l-1.44,3.89H176Zm4,8.49-2-5.63-2.05,5.63Z" transform="translate(-81.15 -83.78)"></path><path d="M193.6,135.94h3.9l6.69,10.71V135.94h3v15h-3.9l-6.69-10.76v10.76h-3Z" transform="translate(-81.15 -83.78)"></path><path d="M212.3,146.8a4.31,4.31,0,0,0,3.31,1.84,1.69,1.69,0,0,0,1.93-1.73c0-2.67-6.85-2.08-6.85-7.06a4.48,4.48,0,0,1,4.8-4.34,6.61,6.61,0,0,1,5.24,2.52l-2.23,2a4,4,0,0,0-3-1.86,1.59,1.59,0,0,0-1.74,1.56c0,2.68,6.85,2.06,6.85,7.13,0,2.78-2.22,4.49-5,4.49a6.72,6.72,0,0,1-5.56-2.51Z" transform="translate(-81.15 -83.78)"></path><path d="M223.83,135.94h3v15h-3Z" transform="translate(-81.15 -83.78)"></path><path d="M229.54,135.94h12.28v2.76H237.2v12.21h-3V138.7h-4.62Z" transform="translate(-81.15 -83.78)"></path><path d="M244.52,135.94h3v15h-3Z" transform="translate(-81.15 -83.78)"></path><path d="M266.38,143.42a7.95,7.95,0,1,1-7.94-7.91A7.79,7.79,0,0,1,266.38,143.42Zm-3.12,0a4.83,4.83,0,1,0-4.82,5.07A4.82,4.82,0,0,0,263.26,143.42Z" transform="translate(-81.15 -83.78)"></path><path d="M269.31,135.94h3.9l6.69,10.71V135.94h3v15H279l-6.69-10.76v10.76h-3Z" transform="translate(-81.15 -83.78)"></path><path d="M81.57,157.8h8.72v2.59H84.6v3.47h4.84v2.59H84.6v3.74h5.69v2.59H81.57Zm3-1.28,2.42-2.89h3.12l-2.78,2.89Z" transform="translate(-81.15 -83.78)"></path><path d="M104.09,168.31l2.4,1.84a7.66,7.66,0,0,1-6.31,3.06,7.92,7.92,0,1,1,6.31-12.8l-2.4,1.86a4.66,4.66,0,0,0-3.91-2.05,5.08,5.08,0,0,0,0,10.14A4.66,4.66,0,0,0,104.09,168.31Z" transform="translate(-81.15 -83.78)"></path><path d="M123.65,165.29a8,8,0,1,1-7.94-7.91A7.79,7.79,0,0,1,123.65,165.29Zm-3.13,0a4.83,4.83,0,1,0-4.81,5.07A4.81,4.81,0,0,0,120.52,165.29Z" transform="translate(-81.15 -83.78)"></path><path d="M126.58,157.8h3V170h5.69v2.76h-8.73Z" transform="translate(-81.15 -83.78)"></path><path d="M152.08,165.29a8,8,0,1,1-7.94-7.91A7.79,7.79,0,0,1,152.08,165.29Zm-3.12,0a4.83,4.83,0,1,0-4.82,5.07A4.82,4.82,0,0,0,149,165.29Z" transform="translate(-81.15 -83.78)"></path><path d="M165.77,169.06v-2.53H162v-2.76h6.85v6.38a8,8,0,0,1-6.53,3.06,7.9,7.9,0,0,1-8.17-7.92,8,8,0,0,1,14.27-4.88l-2.4,1.86a4.66,4.66,0,0,0-3.91-2.05,4.83,4.83,0,0,0-4.84,5.07,4.93,4.93,0,0,0,5.05,5.07A5,5,0,0,0,165.77,169.06Z" transform="translate(-81.15 -83.78)"></path><path d="M172.21,157.8h3v15h-3Z" transform="translate(-81.15 -83.78)"></path><path d="M195.16,173.83a3.28,3.28,0,0,0,1.07-.17v2.56a3.82,3.82,0,0,1-1.58.28,7,7,0,0,1-4.68-2L188.19,173a8,8,0,0,1-2.05.26,7.92,7.92,0,1,1,7.93-7.92,8,8,0,0,1-2.95,6.25l.9.85A4.63,4.63,0,0,0,195.16,173.83ZM191,165.29a4.83,4.83,0,1,0-4.81,5.07A4.81,4.81,0,0,0,191,165.29Z" transform="translate(-81.15 -83.78)"></path><path d="M205.84,157.8h3v9.12c0,3.93-2.31,6.29-6.08,6.29s-6.05-2.36-6.05-6.29V157.8h3v9.37a3,3,0,1,0,6.05,0Z" transform="translate(-81.15 -83.78)"></path><path d="M212.66,157.8h8.73v2.59H215.7v3.47h4.84v2.59H215.7v3.74h5.69v2.59h-8.73Z" transform="translate(-81.15 -83.78)"></path><path class="cls-1" d="M103.81,101.37c.22-.22.43-.45.65-.68h0a12.67,12.67,0,0,1,1.26-1.28,3.71,3.71,0,0,1,.41-.33s0-.11.07-.15c-.18.08-.3.23-.49.3,0,0-.07,0,0-.07l.4-.3h0s0,0,0-.08a1.57,1.57,0,0,0-1.21.57c-.08,0-.15,0-.19,0-.56.19-1,.68-1.54.9v-.07c-.23.07-.45.21-.68.26a3.78,3.78,0,0,1-.94,0c-.46,0-.92.15-1.37.24h0a2.87,2.87,0,0,0-.7.29h0l0,.07a.78.78,0,0,1-.26.22,4.11,4.11,0,0,0-.63.49.08.08,0,0,1-.06,0l-.6.58a.23.23,0,0,1-.12,0h0l0,0,.09-.16a1.74,1.74,0,0,0,.11-.18l.16-.23s0,0,0,0l0,0a4.13,4.13,0,0,1,.63-.47h0s-.06,0,0,0l.07-.11v0l0,0-.18.12c-.09.09-.16.25-.3.25H98l0,0,0,0v0l0-.05,0,0,0-.09,0,0a.21.21,0,0,0,0-.06s0-.06,0-.07a1,1,0,0,1,.26-.23h0c.15-.07.29-.16.43-.24l.07,0a2.56,2.56,0,0,0-.6.29l-.07,0s0,0-.09,0,0,0,0,0,.15-.12.23-.19.07,0,.07,0c1.21-.94,2.86-.71,4.26-1.2l.34-.23c.19-.07.34-.26.56-.37a1.65,1.65,0,0,0,.64-.87.16.16,0,0,0,0-.08A5.8,5.8,0,0,1,102.58,99a7.12,7.12,0,0,1-2.49.45c0-.08.11-.08.19-.08s.08-.15.15-.22h.11s0-.08.08-.08.19,0,.15,0-.34.11-.53,0c.08-.08,0-.19.12-.23h.15a.25.25,0,0,1,.07-.15c.57-.34,1.09-.6,1.62-.91-.11,0-.19.12-.3,0,.07,0,0-.11.07-.11.42-.11.76-.34,1.17-.49-.15,0-.26.11-.41,0,.07,0,.11-.11.22-.11V97s0,0,.08,0a.14.14,0,0,1-.08,0c0-.08.16,0,.23-.11s-.11,0-.11,0a.76.76,0,0,1,.49-.23c0-.07-.15,0-.15-.07s0,0,.07,0h-.07c-.08,0,0-.11,0-.15a2.94,2.94,0,0,0,.34-.91s-.08,0-.08,0a3.09,3.09,0,0,1-1.54.71h-.19a.72.72,0,0,1-.64,0,2,2,0,0,1-.38-.3,4.07,4.07,0,0,0-.94-.45,8.42,8.42,0,0,0-2.9-.41,5.89,5.89,0,0,1,1.32-.38,5.75,5.75,0,0,1,1.92-.38,1.61,1.61,0,0,0-.38,0,6.8,6.8,0,0,0-1.62.23c-.37.07-.71.23-1.09.3s-.34.3-.6.26v-.11A2.17,2.17,0,0,1,98,93.81a7.45,7.45,0,0,1,2,.07,10.28,10.28,0,0,1,1.43.27c.19,0,.22.3.37.34s.46,0,.68.15c0-.08,0-.15,0-.23s.34,0,.49,0c.3-.18-.26-.52-.41-.79,0,0,0-.07,0-.07a4.38,4.38,0,0,0,.9.75c.19.08.64.19.56,0a5.93,5.93,0,0,0-.86-1.13v-.15c-.08,0-.08,0-.11-.07v-.15c-.16-.08-.12-.23-.19-.34s0-.45-.12-.68a4.94,4.94,0,0,1-.15-.64c-.11-.64-.26-1.21-.34-1.81s.42-1.28.76-1.92a3.27,3.27,0,0,1,1.05-1.21,3.46,3.46,0,0,1,.72-1.2,3.08,3.08,0,0,1,1.16-.75,10.35,10.35,0,0,1,1-.39H81.15v19.94H99.46a16.46,16.46,0,0,1,2.43-1.26A9.74,9.74,0,0,0,103.81,101.37ZM98,98.67c-.08,0-.23,0-.19,0s.3-.19.45-.26.19-.12.27-.08.19.08.26.15C98.58,98.67,98.28,98.56,98,98.67Zm-5.76-.83a.14.14,0,0,1,0-.08,11.54,11.54,0,0,0,1.2-1.92,5,5,0,0,0,1.28-1,7.37,7.37,0,0,1,2.11-1.66,1.5,1.5,0,0,1,1,0c-.11.15-.3.11-.45.23a.13.13,0,0,1-.11,0,.15.15,0,0,0,0-.12c-.38.42-.91.61-1.21,1.1s-.38.86-.87,1c-.15,0,0-.12,0-.08A12.6,12.6,0,0,0,92.26,97.84Zm3.12-2.49c0,.08-.08.09-.11.15a.33.33,0,0,1-.15.16s-.08,0-.08,0a.47.47,0,0,1,.3-.34S95.38,95.32,95.38,95.35ZM97.13,101a.31.31,0,0,1-.09.11s.08,0,0,.06a.84.84,0,0,1-.29.2h0l-.15.14s-.25,0-.18-.05l.27-.26.16-.15.08-.09S97.16,100.92,97.13,101Zm-.67-.31h0c-.14.1-.28.2-.43.29s-.33.16-.5.24h0a.08.08,0,0,0-.07,0,2.12,2.12,0,0,0-.38.29l0,.05h0l-.05,0h0l-.08.09-.05,0s-.09,0-.08,0h0l-.07,0-.06,0h0l-.14.11a2.39,2.39,0,0,0-.22.23h0v0h0l0,0h0l0,0,0,0v0a.16.16,0,0,1,0-.06h0v0l.12-.13h0l0,0,.06-.08,0,0,.12-.16h0l0,0a.56.56,0,0,0,0-.08.25.25,0,0,0,0-.07h0l0-.09h0v-.06h0s0,0,0-.06v0l.14-.21h0c-.06,0-.09.09-.14.12s-.12,0-.07,0l.09-.08h0a1.7,1.7,0,0,1,.19-.19l.12-.09h0l.09-.1h0c.36-.35,1-.33,1.45-.55.18-.08.41,0,.6,0a.61.61,0,0,1,.34.07C97.08,100.29,96.77,100.49,96.46,100.69Zm.77-2.62s.11,0,.15-.08h-.3s0,0,0-.07c-.19,0-.41.11-.6.15s-.49.26-.79.34-.76.49-1.21.64c0,0,0,0,0-.08s.19-.15.27-.26,0-.08,0-.08a6.81,6.81,0,0,1,1.09-1v-.11c.11-.15.3-.23.38-.42a.67.67,0,0,1,.38-.33s-.12,0-.12-.12c-.15,0-.3.08-.45,0a.56.56,0,0,1,.24-.13.13.13,0,0,1-.09,0c0-.08.07-.16.19-.19s.34,0,.45-.15c-.26,0-.56.07-.83-.08a2,2,0,0,1,.94-1.13s.12,0,.12,0a.38.38,0,0,1-.3.38,3.7,3.7,0,0,1,.9.22c0,.08-.11,0-.15,0,.19.11.41,0,.6.19-.11.11-.22,0-.34,0A9.92,9.92,0,0,1,101,97.12a10.18,10.18,0,0,1-2.6.8.8.8,0,0,1-.3,0s0,.11,0,.11a.57.57,0,0,0-.37.08C97.57,98.14,97.34,98.18,97.23,98.07Z" transform="translate(-81.15 -83.78)"></path><path class="cls-2" d="M136,83.78H114.53l.2.1.54.29a1.68,1.68,0,0,1,.72.6c.07.11.19.34.11.49s-.11.49-.3.56a1.33,1.33,0,0,1-.79.08,1.78,1.78,0,0,1-.45-.08,3.12,3.12,0,0,1,1.47,1c0,.08.18.11.33.11s0,.08,0,.12-.15.11-.11.22h.11c.19-.07.15-.45.42-.34a.43.43,0,0,1,.15.57,5,5,0,0,1-.45.38.3.3,0,0,0,0,.26,1.07,1.07,0,0,1,.18.45c.12.26.15.57.27.83a5.24,5.24,0,0,1,.26,1.7c0,.3-.15.56,0,.86a3.33,3.33,0,0,0,.42.79,5.43,5.43,0,0,1,.41.61c.23.37.64.75.45,1.2-.11.26-.52.23-.79.38s0,.49.08.68-.23.56-.49.67c.07.12.23.08.26.15s.23.31.12.49-.61.34-.38.68a1,1,0,0,1,0,.83.92.92,0,0,1-.68.57,1.55,1.55,0,0,1-.71,0,.68.68,0,0,0-.23-.07,15.83,15.83,0,0,0-1.92-.27,2.06,2.06,0,0,0-.53.16,2.92,2.92,0,0,0-.45.4h0l-.08.09-.05.06,0,0a3.41,3.41,0,0,0-.3.44v0l0,.06a3.38,3.38,0,0,0-.29.69,2.28,2.28,0,0,0,0,1.78s1.24.42,2.07.79a6.55,6.55,0,0,1,.89.45H136Z" transform="translate(-81.15 -83.78)"></path><path class="cls-3" d="M115.8,91.06c.15,0,.38,0,.38.11-.08.3-.53.38-.76.68h-.11c-.11.07-.07.26-.19.26a.51.51,0,0,0-.34,0,.64.64,0,0,0,.57.22s.11.08.11.16a.12.12,0,0,0,.08,0s.07,0,.07,0v.15c-.11.15-.3.07-.45.11a1.83,1.83,0,0,0,.87,0c.22-.08,0-.45.15-.64-.08,0,0-.11-.08-.11.08-.08.15-.19.23-.23a.27.27,0,0,0,.22-.11c0-.08-.15-.12-.11-.19.23-.15.42-.38.34-.6s-.34-.12-.53-.19a1.28,1.28,0,0,0-.64,0,3,3,0,0,0-.56.16,2.46,2.46,0,0,0-.72.37,5.31,5.31,0,0,1,.83-.22A2.29,2.29,0,0,1,115.8,91.06Z" transform="translate(-81.15 -83.78)"></path></svg>
