<?xml version="1.0" encoding="utf-8"?>
<!-- Generator: Adobe Illustrator 27.6.1, SVG Export Plug-In . SVG Version: 6.00 Build 0)  -->
<svg version="1.1" id="Layer_1" xmlns="http://www.w3.org/2000/svg" xmlns:xlink="http://www.w3.org/1999/xlink" x="0px" y="0px"
	 viewBox="0 0 1269.97 366.13" style="enable-background:new 0 0 1269.97 366.13;" xml:space="preserve">
<g>
	<polygon points="200.19,216.79 155.71,68.96 68.96,68.96 153.05,297.17 245.97,297.17 319.22,68.96 240.14,68.96 	"/>
	<polygon points="543.57,297.17 737.45,297.17 737.45,232.5 611.99,232.5 611.99,210.95 735.8,210.95 735.8,151.74 611.99,151.74 
		611.99,131.62 737.45,131.62 737.45,68.96 543.57,68.96 	"/>
	<path d="M1114.28,151.74h-53.47c-5.74,0-10.42-2.87-10.42-10.06c0-7.18,4.67-10.06,10.42-10.06h50.74c5.74,0,8.21,2.87,8.21,10.06
		h74.98c0-46.85-30.65-72.72-85.65-72.72h-48.29c-60.47,0-84.55,20.7-84.55,72.72c0,45.42,26.81,69.27,77.99,69.27h59.22
		c5.74,0,10.42,3.16,10.42,10.63c0,7.76-4.4,10.92-10.15,10.92h-54.02c-5.74,0-8.21-3.16-8.21-10.92h-74.43
		c0,54.04,24.08,75.59,84.56,75.59h42.26c67.05,0,97.13-21.56,97.13-75.59C1201.01,175.59,1169.01,151.74,1114.28,151.74z"/>
	<polygon points="330.8,297.17 524.96,297.17 524.96,232.5 399.22,232.5 399.22,210.95 523.31,210.95 523.31,151.74 399.22,151.74 
		399.22,131.62 524.96,131.62 524.96,68.96 330.8,68.96 	"/>
	<path d="M886.18,68.96H756.07v228.22h68.96v-86.22h61.15c55.83,0,78.27-19.83,78.27-69.56C964.45,89.65,942.01,68.96,886.18,68.96z
		 M886.17,151.74h-61.14v-20.12h61.14c5.74,0,10.41,2.87,10.41,9.77C896.58,148.86,891.91,151.74,886.17,151.74z"/>
</g>
</svg>
